<?xml version="1.0" encoding="UTF-8" standalone="no"?>
<!-- Generator: Adobe Illustrator 21.0.0, SVG Export Plug-In . SVG Version: 6.00 Build 0)  -->

<svg
   version="1.1"
   id="Layer_1"
   x="0px"
   y="0px"
   viewBox="0 0 491.20001 204.8"
   enable-background="new 0 0 1200 1000"
   xml:space="preserve"
   sodipodi:docname="icon.svg"
   width="491.20001"
   height="204.8"
   inkscape:version="1.2.2 (b0a8486541, 2022-12-01)"
   xmlns:inkscape="http://www.inkscape.org/namespaces/inkscape"
   xmlns:sodipodi="http://sodipodi.sourceforge.net/DTD/sodipodi-0.dtd"
   xmlns="http://www.w3.org/2000/svg"
   xmlns:svg="http://www.w3.org/2000/svg"><defs
   id="defs78" /><sodipodi:namedview
   id="namedview76"
   pagecolor="#505050"
   bordercolor="#ffffff"
   borderopacity="1"
   inkscape:showpageshadow="0"
   inkscape:pageopacity="0"
   inkscape:pagecheckerboard="1"
   inkscape:deskcolor="#505050"
   showgrid="false"
   inkscape:zoom="0.854"
   inkscape:cx="245.90164"
   inkscape:cy="290.98361"
   inkscape:window-width="1920"
   inkscape:window-height="1008"
   inkscape:window-x="1080"
   inkscape:window-y="1080"
   inkscape:window-maximized="1"
   inkscape:current-layer="Layer_1" />

<g
   id="g73"
   transform="translate(-354.2,-397.7)">
	<g
   id="g67">
		<g
   id="g61">
			<path
   fill="#6d6e71"
   d="m 508.1,528.3 c -4.7,0.1 -9.1,0.1 -13.2,0.2 -4.1,0.1 -7.8,0.1 -11,0.2 -3.2,0.1 -5.4,0.1 -6.8,0.3 1.1,-0.8 2.5,-1.7 4,-2.9 1.6,-1.1 3.5,-2.6 6,-4.4 2.4,-1.8 5.3,-4.1 8.6,-6.6 3.4,-2.6 7.3,-5.7 11.9,-9.4 L 549,472.8 c 2.3,-1.8 4.2,-3.9 5.5,-6.3 1.3,-2.4 2,-4.9 2,-7.5 0,-4.6 -1.6,-8.1 -4.8,-10.5 -3.2,-2.4 -7,-3.6 -11.3,-3.6 H 437 l -22.1,29.2 h 44.9 c 5.6,0 10.5,0 14.6,0 4.1,0 7.7,0 10.8,-0.1 3.1,-0.1 5.6,-0.1 7.7,-0.3 2.1,-0.1 3.9,-0.2 5.4,-0.3 -1,0.8 -2.3,1.7 -3.9,2.9 -1.6,1.1 -3.7,2.6 -6.1,4.4 -2.5,1.8 -5.4,4.1 -8.7,6.7 -3.4,2.6 -7.4,5.8 -12.1,9.5 l -40.9,32.2 c -2.3,1.9 -4.2,4.1 -5.5,6.5 -1.3,2.4 -2,4.9 -2,7.5 0,4.6 1.6,8.1 4.8,10.5 3.2,2.4 7,3.6 11.3,3.6 h 106.3 l 21,-28.8 h -40.7 c -4.4,-0.1 -9,-0.1 -13.7,-0.1 z"
   id="path59" />
		</g>
		<g
   id="g65">
			<path
   fill="#1b75bc"
   d="m 520.8,602.5 h -64.2 c -56.5,0 -102.4,-45.9 -102.4,-102.4 0,-56.5 45.9,-102.4 102.4,-102.4 h 64.2 c 56.5,0 102.4,45.9 102.4,102.4 0,56.5 -46,102.4 -102.4,102.4 z m -64.2,-193 c -49.9,0 -90.6,40.6 -90.6,90.6 0,50 40.6,90.6 90.6,90.6 h 64.2 c 49.9,0 90.6,-40.6 90.6,-90.6 0,-50 -40.6,-90.6 -90.6,-90.6 z"
   id="path63" />
		</g>
	</g>
	<g
   id="g71">
		<path
   fill="#1b75bc"
   d="m 742.9,397.7 h -150 c 32.1,22.7 53.2,60.1 53.2,102.4 0,42.3 -21,79.7 -53.2,102.4 H 743 c 28.3,0 53.9,-11.5 72.4,-30 18.5,-18.5 30,-44.1 30,-72.4 -0.1,-56.6 -45.9,-102.4 -102.5,-102.4 z m 33.2,159.4 H 677 V 444.9 h 34.7 v 83.4 h 86.9 z"
   id="path69" />
	</g>
</g>
</svg>
