<?xml version="1.0" encoding="UTF-8" standalone="no"?>
<!-- Generator: Adobe Illustrator 21.0.0, SVG Export Plug-In . SVG Version: 6.00 Build 0)  -->

<svg
   version="1.1"
   id="Layer_1"
   x="0px"
   y="0px"
   viewBox="0 0 620.90002 84.199997"
   enable-background="new 0 0 1200 1000"
   xml:space="preserve"
   sodipodi:docname="logo.svg"
   width="620.90002"
   height="84.199997"
   inkscape:version="1.2.2 (b0a8486541, 2022-12-01)"
   xmlns:inkscape="http://www.inkscape.org/namespaces/inkscape"
   xmlns:sodipodi="http://sodipodi.sourceforge.net/DTD/sodipodi-0.dtd"
   xmlns="http://www.w3.org/2000/svg"
   xmlns:svg="http://www.w3.org/2000/svg"><defs
   id="defs117" /><sodipodi:namedview
   id="namedview115"
   pagecolor="#505050"
   bordercolor="#ffffff"
   borderopacity="1"
   inkscape:showpageshadow="0"
   inkscape:pageopacity="0"
   inkscape:pagecheckerboard="1"
   inkscape:deskcolor="#505050"
   showgrid="false"
   inkscape:zoom="0.854"
   inkscape:cx="310.30445"
   inkscape:cy="43.911007"
   inkscape:window-width="1920"
   inkscape:window-height="1008"
   inkscape:window-x="1080"
   inkscape:window-y="1080"
   inkscape:window-maximized="1"
   inkscape:current-layer="Layer_1" />

<g
   id="g112"
   transform="translate(-289.5,-457.5)">
	<g
   id="g104">
		<g
   id="g96">
			<g
   id="g90">
				<polygon
   fill="#6d6e71"
   points="381.1,488.9 425.3,488.9 434.5,476.9 381.1,476.9 "
   id="polygon76" />
				<path
   fill="#6d6e71"
   d="m 353.9,511.2 c -1.9,0 -3.7,0 -5.4,0.1 -1.7,0 -3.2,0 -4.5,0.1 -1.3,0 -2.2,0.1 -2.8,0.1 0.5,-0.3 1,-0.7 1.7,-1.2 0.6,-0.5 1.5,-1.1 2.4,-1.8 1,-0.8 2.2,-1.7 3.6,-2.7 1.4,-1.1 3,-2.3 4.9,-3.9 l 17,-13.5 c 1,-0.7 1.7,-1.6 2.3,-2.6 0.6,-1 0.8,-2 0.8,-3.1 0,-1.9 -0.7,-3.3 -2,-4.3 -1.3,-1 -2.9,-1.5 -4.7,-1.5 h -42.5 l -9.1,12 H 334 c 2.3,0 4.3,0 6,0 1.7,0 3.2,0 4.4,0 1.3,0 2.3,-0.1 3.2,-0.1 0.8,0 1.6,-0.1 2.2,-0.1 -0.4,0.3 -1,0.7 -1.6,1.2 -0.7,0.5 -1.5,1.1 -2.5,1.8 -1,0.8 -2.2,1.7 -3.6,2.8 -1.4,1.1 -3,2.4 -5,3.9 l -16.8,13.2 c -1,0.8 -1.7,1.7 -2.3,2.7 -0.6,1 -0.8,2 -0.8,3.1 0,1.9 0.7,3.3 2,4.3 1.3,1 2.9,1.5 4.7,1.5 h 43.7 l 8.6,-11.9 h -16.8 c -1.7,-0.1 -3.6,-0.1 -5.5,-0.1 z"
   id="path78" />
				<polygon
   fill="#6d6e71"
   points="423.8,504.9 432,494.5 381.1,494.5 381.1,523.1 425.5,523.1 434.7,511.2 395.4,511.2 395.4,504.9 "
   id="polygon80" />
				<polygon
   fill="#6d6e71"
   points="515.5,523.1 556.2,523.1 565.4,511.2 529.7,511.2 529.7,476.9 515.5,476.9 "
   id="polygon82" />
				<path
   fill="#6d6e71"
   d="m 477.9,477.7 c -1.4,-1 -3.2,-1.5 -5.4,-1.5 -2.3,0 -4.1,0.5 -5.6,1.6 -1.5,1.1 -2.7,2.3 -3.7,3.6 l -29.6,41.7 h 16.9 l 21.6,-30.6 c 0,0 20.3,29.9 20.8,30.6 h 17.4 l -28.8,-41.7 c -1,-1.5 -2.2,-2.7 -3.6,-3.7 z"
   id="path84" />
				<g
   id="g88">
					<polygon
   fill="#00aeef"
   points="472,509 462.1,523.1 481.4,523.1 "
   id="polygon86" />
				</g>
			</g>
			<g
   id="g94">
				<path
   fill="#1b75bc"
   d="M 549.4,541.7 H 331.6 c -23.2,0 -42.1,-18.9 -42.1,-42.1 0,-23.2 18.9,-42.1 42.1,-42.1 h 217.8 c 23.2,0 42.1,18.9 42.1,42.1 0,23.2 -18.9,42.1 -42.1,42.1 z M 331.6,462.4 c -20.5,0 -37.2,16.7 -37.2,37.2 0,20.5 16.7,37.2 37.2,37.2 h 217.8 c 20.5,0 37.2,-16.7 37.2,-37.2 0,-20.5 -16.7,-37.2 -37.2,-37.2 z"
   id="path92" />
			</g>
		</g>
		<g
   id="g102">
			<path
   fill="#1b75bc"
   d="m 788.7,505.7 c -0.7,-0.5 -1.8,-0.8 -3.4,-0.8 H 759 v 6.3 h 26.3 c 1.6,0 2.7,-0.3 3.4,-0.8 0.7,-0.5 1,-1.4 1,-2.4 0.1,-1 -0.3,-1.8 -1,-2.3 z m 0,0 c -0.7,-0.5 -1.8,-0.8 -3.4,-0.8 H 759 v 6.3 h 26.3 c 1.6,0 2.7,-0.3 3.4,-0.8 0.7,-0.5 1,-1.4 1,-2.4 0.1,-1 -0.3,-1.8 -1,-2.3 z m 0,0 c -0.7,-0.5 -1.8,-0.8 -3.4,-0.8 H 759 v 6.3 h 26.3 c 1.6,0 2.7,-0.3 3.4,-0.8 0.7,-0.5 1,-1.4 1,-2.4 0.1,-1 -0.3,-1.8 -1,-2.3 z m 0,0 c -0.7,-0.5 -1.8,-0.8 -3.4,-0.8 H 759 v 6.3 h 26.3 c 1.6,0 2.7,-0.3 3.4,-0.8 0.7,-0.5 1,-1.4 1,-2.4 0.1,-1 -0.3,-1.8 -1,-2.3 z m 0,0 c -0.7,-0.5 -1.8,-0.8 -3.4,-0.8 H 759 v 6.3 h 26.3 c 1.6,0 2.7,-0.3 3.4,-0.8 0.7,-0.5 1,-1.4 1,-2.4 0.1,-1 -0.3,-1.8 -1,-2.3 z m 0,0 c -0.7,-0.5 -1.8,-0.8 -3.4,-0.8 H 759 v 6.3 h 26.3 c 1.6,0 2.7,-0.3 3.4,-0.8 0.7,-0.5 1,-1.4 1,-2.4 0.1,-1 -0.3,-1.8 -1,-2.3 z m 0,0 c -0.7,-0.5 -1.8,-0.8 -3.4,-0.8 H 759 v 6.3 h 26.3 c 1.6,0 2.7,-0.3 3.4,-0.8 0.7,-0.5 1,-1.4 1,-2.4 0.1,-1 -0.3,-1.8 -1,-2.3 z m 0,0 c -0.7,-0.5 -1.8,-0.8 -3.4,-0.8 H 759 v 6.3 h 26.3 c 1.6,0 2.7,-0.3 3.4,-0.8 0.7,-0.5 1,-1.4 1,-2.4 0.1,-1 -0.3,-1.8 -1,-2.3 z m 0,0 c -0.7,-0.5 -1.8,-0.8 -3.4,-0.8 H 759 v 6.3 h 26.3 c 1.6,0 2.7,-0.3 3.4,-0.8 0.7,-0.5 1,-1.4 1,-2.4 0.1,-1 -0.3,-1.8 -1,-2.3 z"
   id="path98" />
			<path
   fill="#1b75bc"
   d="M 791.6,457.5 H 578.2 c 13.4,9.2 22.2,24.6 22.2,42.1 0,17.5 -8.8,32.9 -22.2,42.1 h 213.5 c 11.6,0 22.1,-4.7 29.8,-12.3 7.6,-7.6 12.3,-18.1 12.3,-29.8 -0.1,-23.2 -18.9,-42.1 -42.2,-42.1 z m -37.2,19.4 H 785 c 2.7,0 5.2,0.3 7.5,0.8 2.2,0.5 4.1,1.3 5.7,2.4 1.6,1.1 2.8,2.4 3.6,4 0.8,1.4 1.2,3 1.3,4.8 H 744.8 Z M 614,523.1 V 477 h 14.3 v 34.3 H 664 l -9.2,11.9 H 614 Z m 77.4,0 9.9,-14 9.4,14 z m 30.9,0 c -0.5,-0.7 -20.8,-30.6 -20.8,-30.6 l -21.6,30.6 H 663 l 29.6,-41.7 c 1,-1.3 2.2,-2.5 3.6,-3.6 1.5,-1.1 3.3,-1.6 5.6,-1.6 2.2,0 4,0.5 5.4,1.5 1.4,1 2.7,2.2 3.7,3.7 l 28.8,41.7 z m 80.8,-8.1 c -0.6,1.6 -1.6,3 -3,4.2 -1.4,1.2 -3.3,2.1 -5.8,2.8 -2.4,0.7 -5.4,1 -9.1,1 h -40.5 v -28 h 57.1 c -0.2,0.4 -0.4,0.8 -0.7,1.1 -0.6,0.8 -1.2,1.5 -2,2 -0.8,0.5 -1.5,0.9 -2.3,1.2 2,0.6 3.7,1.8 5.1,3.5 1.4,1.7 2.1,4 2.1,6.8 0,2 -0.3,3.7 -0.9,5.4 z"
   id="path100" />
		</g>
	</g>
	<path
   fill="#6d6e71"
   d="m 904.6,539.7 h -26.2 c -3.2,0 -5.8,-2.6 -5.8,-5.8 v 0 c 0,-3.2 2.6,-5.8 5.8,-5.8 h 26.2 c 3.2,0 5.8,2.6 5.8,5.8 v 0 c -0.1,3.2 -2.6,5.8 -5.8,5.8 z"
   id="path106" />
	<g
   id="g110">
		<path
   fill="#6d6e71"
   d="m 894.6,502.4 c 0,0 0,0 0,0 0.1,-0.2 0.2,-0.3 0.3,-0.5 0,0 0,0 0,-0.1 0.1,-0.2 0.1,-0.3 0.2,-0.5 0,0 0,-0.1 0,-0.1 0,-0.2 0.1,-0.3 0.1,-0.5 0,0 0,-0.1 0,-0.1 0,-0.2 0.1,-0.3 0.1,-0.5 0,0 0,0 0,-0.1 0,-0.2 0,-0.3 0,-0.5 0,0 0,0 0,0 0,-1.1 -0.2,-2.2 -0.8,-3.2 v 0 c -0.1,-0.1 -0.1,-0.2 -0.2,-0.4 v 0 c -0.4,-0.6 -0.9,-1 -1.4,-1.4 L 846.3,461 c -2.6,-1.9 -6.2,-1.3 -8,1.3 -1.9,2.6 -1.3,6.2 1.3,8 l 40.2,28.9 -40.2,28.9 c -2.6,1.9 -3.2,5.5 -1.3,8 v 0 c 1.9,2.6 5.5,3.2 8,1.3 L 893,503.9 c 0,0 0,0 0,0 0.1,-0.1 0.1,-0.1 0.2,-0.2 0.1,-0.1 0.2,-0.1 0.2,-0.2 0,0 0.1,-0.1 0.1,-0.1 0.1,-0.1 0.2,-0.2 0.3,-0.3 0,0 0,0 0,0 0.4,-0.1 0.7,-0.4 0.8,-0.7 z"
   id="path108" />
	</g>
</g>
</svg>
